<svg width="24" height="24" viewBox="0 0 24 24" fill="none" xmlns="http://www.w3.org/2000/svg">
<path d="M19.5 8.5H4.5C3.67157 8.5 3 9.19168 3 10.0449C3 10.8981 3.67157 11.5898 4.5 11.5898H19.5C20.3284 11.5898 21 10.8981 21 10.0449C21 9.19168 20.3284 8.5 19.5 8.5Z" fill="black"/>
<path d="M3.5 17.9101H20.5C21.3284 17.9101 22 18.6018 22 19.455C22 20.3083 21.3284 21 20.5 21H3.5C2.67157 21 2 20.3083 2 19.455C2 18.6018 2.67157 17.9101 3.5 17.9101Z" fill="black"/>
<g opacity="0.5">
<path d="M10.7806 3.42717L6.49611 6.82162C6.42183 6.88047 6.46344 7 6.55821 7H17.4419C17.5366 7 17.5782 6.88047 17.504 6.82162L13.2195 3.42717C12.5005 2.85761 11.4995 2.85761 10.7806 3.42717Z" fill="black"/>
<path d="M5.5 12.7006C5.22386 12.7006 5 12.9244 5 13.2006V16.4101C5 16.6863 5.22386 16.9101 5.5 16.9101H6.5C6.77614 16.9101 7 16.6863 7 16.4101V13.2006C7 12.9244 6.77614 12.7006 6.5 12.7006H5.5Z" fill="black"/>
<path d="M9.5 12.7006C9.22386 12.7006 9 12.9244 9 13.2006V16.4101C9 16.6863 9.22386 16.9101 9.5 16.9101H10.5C10.7761 16.9101 11 16.6863 11 16.4101V13.2006C11 12.9244 10.7761 12.7006 10.5 12.7006H9.5Z" fill="black"/>
<path d="M13.5 12.7006C13.2239 12.7006 13 12.9244 13 13.2006V16.4101C13 16.6863 13.2239 16.9101 13.5 16.9101H14.5C14.7761 16.9101 15 16.6863 15 16.4101V13.2006C15 12.9244 14.7761 12.7006 14.5 12.7006H13.5Z" fill="black"/>
<path d="M17.5 12.7006C17.2239 12.7006 17 12.9244 17 13.2006V16.4101C17 16.6863 17.2239 16.9101 17.5 16.9101H18.5C18.7761 16.9101 19 16.6863 19 16.4101V13.2006C19 12.9244 18.7761 12.7006 18.5 12.7006H17.5Z" fill="black"/>
</g>
</svg>
