<svg width="24" height="24" viewBox="0 0 24 24" fill="none" xmlns="http://www.w3.org/2000/svg">
<path opacity="0.5" fill-rule="evenodd" clip-rule="evenodd" d="M4 16.4443C4 11.9999 8.57143 6.44434 12 6.44434C15.4286 6.44434 20 11.9999 20 16.4443C20 19.7777 17.7143 21.9999 12 21.9999C6.28571 21.9999 4 19.7777 4 16.4443ZM12 9.25C12.4142 9.25 12.75 9.58579 12.75 10V10.5641C13.2073 10.6732 13.6078 10.8785 13.9283 11.1439C14.398 11.5328 14.75 12.1028 14.75 12.7273C14.75 13.1415 14.4142 13.4773 14 13.4773C13.5858 13.4773 13.25 13.1415 13.25 12.7273C13.25 12.6699 13.202 12.4899 12.9717 12.2993C12.7576 12.122 12.4271 11.9773 12 11.9773C11.1184 11.9773 10.75 12.5494 10.75 12.8636C10.75 13.2988 10.8802 13.4544 10.9924 13.5364C11.1521 13.6531 11.4598 13.75 12 13.75C12.6598 13.75 13.3521 13.8576 13.8924 14.2523C14.4802 14.6817 14.75 15.3443 14.75 16.1364C14.75 17.2321 13.9041 18.1507 12.75 18.4332V19C12.75 19.4142 12.4142 19.75 12 19.75C11.5858 19.75 11.25 19.4142 11.25 19V18.432C10.1162 18.1471 9.38333 17.2321 9.38333 16.2727C9.38333 15.8585 9.71912 15.5227 10.1333 15.5227C10.5475 15.5227 10.8833 15.8585 10.8833 16.2727C10.8833 16.4791 11.1502 17.0227 12 17.0227C12.8816 17.0227 13.25 16.4506 13.25 16.1364C13.25 15.7012 13.1198 15.5456 13.0076 15.4636C12.8479 15.3469 12.5402 15.25 12 15.25C11.3402 15.25 10.6479 15.1424 10.1076 14.7477C9.51985 14.3183 9.25 13.6557 9.25 12.8636C9.25 11.7679 10.0959 10.8493 11.25 10.5668V10C11.25 9.58579 11.5858 9.25 12 9.25Z" fill="black"/>
<path d="M7.71962 3.06345C8.04347 3.67244 8.61473 4.26507 9.31664 4.81298C9.45682 4.9224 9.64536 4.94213 9.81122 4.878C10.5042 4.61004 11.2414 4.44434 12 4.44434C12.7586 4.44434 13.4958 4.61004 14.1888 4.878C14.3547 4.94213 14.5432 4.9224 14.6834 4.81298C15.3853 4.26507 15.9565 3.67244 16.2804 3.06345C16.5703 2.51835 16.0598 2 15.4286 2H8.57143C7.94025 2 7.42974 2.51835 7.71962 3.06345Z" fill="black"/>
</svg>
