<svg width="24" height="24" viewBox="0 0 24 24" fill="none" xmlns="http://www.w3.org/2000/svg">
<path d="M19 20H5C3.34315 20 2 18.6568 2 17V7.55675C2 7.4958 2.12238 7.48018 2.143 7.53754C2.44613 8.38103 3.08166 8.99997 4 8.99997H19C20.384 8.99997 21.549 9.93711 21.8953 11.2114C21.9358 11.3606 21.8177 11.5 21.6631 11.5H18C16.3431 11.5 15 12.8431 15 14.5C15 16.1568 16.3431 17.5 18 17.5H21.6631C21.8177 17.5 21.9358 17.6393 21.8953 17.7885C21.549 19.0628 20.384 20 19 20Z" fill="black"/>
<g opacity="0.5">
<path d="M21.5 13.5C21.7761 13.5 22 13.7239 22 14V15C22 15.2761 21.7761 15.5 21.5 15.5H18C17.4477 15.5 17 15.0523 17 14.5C17 13.9477 17.4477 13.5 18 13.5H21.5Z" fill="black"/>
<path fill-rule="evenodd" clip-rule="evenodd" d="M3 5.5C3 4.67157 3.67157 4 4.5 4H16C17.5727 4 18.8627 5.21016 18.9897 6.75008C19.0011 6.88768 18.8881 7 18.75 7H4.5C3.67157 7 3 6.32843 3 5.5Z" fill="black"/>
</g>
</svg>
